<svg width="42" height="44" viewBox="0 0 42 44" fill="none" xmlns="http://www.w3.org/2000/svg">
	
    <path d="M32.8451 2.04C34.4771 1.336 35.7891 0.983997 36.7811 0.983997C37.7731 0.983997 38.5571 1.096 39.1331 1.32C39.7091 1.544 40.1731 1.8 40.5251 2.088C40.8771 2.376 41.0531 2.648 41.0531 2.904C41.0531 3.16 41.0051 3.288 40.9091 3.288C40.8131 3.288 40.5571 3.096 40.1411 2.712C39.7571 2.328 39.1651 2.136 38.3651 2.136C37.5651 2.136 36.1411 2.552 34.0931 3.384C30.6691 4.856 27.8051 6.232 25.5011 7.512C23.1971 8.76 19.9491 10.904 15.7571 13.944C16.1411 15 16.7971 16.376 17.7251 18.072C18.6531 19.768 19.6451 21.272 20.7011 22.584C21.7891 23.864 22.7171 24.68 23.4851 25.032C24.2851 25.384 24.8611 25.56 25.2131 25.56C25.5651 25.56 25.9331 25.528 26.3171 25.464C26.7331 25.4 27.3251 25.08 28.0931 24.504C28.8931 23.896 29.5491 23.304 30.0611 22.728C30.5731 22.152 31.1651 21.416 31.8371 20.52C32.0931 20.168 32.2691 20.12 32.3651 20.376C32.3651 20.568 32.2851 20.792 32.1251 21.048C30.4611 23.352 29.0211 25 27.8051 25.992C26.6211 26.984 25.4211 27.48 24.2051 27.48C22.4771 27.48 20.7971 26.408 19.1651 24.264C17.5971 22.216 16.1251 19.688 14.7491 16.68C14.2051 15.496 13.9171 14.872 13.8851 14.808C16.6371 12.28 20.3811 9.544 25.1171 6.6C28.6371 4.232 31.2131 2.712 32.8451 2.04ZM3.90113 27.528C3.51713 27.88 3.24513 28.056 3.08513 28.056C2.92513 28.056 2.84513 27.992 2.84513 27.864C2.84513 27.832 2.86113 27.8 2.89313 27.768C4.26913 26.648 5.51713 25.128 6.63713 23.208C9.22913 18.824 12.3651 13.288 16.0451 6.6C17.5811 3.912 19.4531 2.264 21.6611 1.656C18.8771 1.72 16.6691 1.944 15.0371 2.328C12.6051 2.872 11.3891 4.104 11.3891 6.024C11.3891 6.856 11.6131 7.432 12.0611 7.752C12.1891 7.848 12.1731 7.944 12.0131 8.04C11.8531 8.136 11.6771 8.136 11.4851 8.04C11.2931 7.912 10.9891 7.544 10.5731 6.936C9.93313 5.976 9.61313 5.144 9.61313 4.44C9.61313 3.736 9.78913 3.128 10.1411 2.616C10.4931 2.072 11.2131 1.688 12.3011 1.464C13.9651 1.08 15.7571 0.887999 17.6771 0.887999C17.7411 0.887999 18.5571 0.887999 20.1251 0.887999C21.7251 0.887999 22.7491 0.855999 23.1971 0.792C23.6451 0.695999 23.9011 0.647999 23.9651 0.647999C24.2531 0.647999 24.4291 0.823998 24.4931 1.176C24.4931 1.496 24.3491 1.656 24.0611 1.656C23.8691 1.592 23.6771 1.56 23.4851 1.56C22.0451 1.56 20.5891 2.856 19.1171 5.448C15.5331 11.496 12.0291 17.944 8.60513 24.792C8.54113 24.92 8.41313 25.208 8.22113 25.656C8.06113 26.104 7.90113 26.424 7.74113 26.616C7.58113 26.808 7.37313 26.888 7.11713 26.856C6.86113 26.792 6.58913 26.76 6.30113 26.76C6.01313 26.76 5.64513 26.808 5.19713 26.904C4.74913 26.968 4.31713 27.176 3.90113 27.528ZM1.4805 36.264L1.3365 37.464C1.3365 38.904 1.8005 40.008 2.7285 40.776C3.6245 41.576 4.7285 41.976 6.0405 41.976C7.3205 41.976 8.5685 41.736 9.7845 41.256C14.6165 39.176 18.6805 34.152 21.9765 26.184C22.3605 25.256 22.9205 23.848 23.6565 21.96C25.2885 17.736 26.5685 14.712 27.4965 12.888C29.4485 8.92 31.6245 6.936 34.0245 6.936C34.3445 6.936 34.6325 7.032 34.8885 7.224C35.1445 7.384 35.2565 7.624 35.2245 7.944L35.1285 9.288C35.1285 9.384 35.0805 9.432 34.9845 9.432C34.9205 9.432 34.8885 9.416 34.8885 9.384C34.8885 8.712 34.4885 8.376 33.6885 8.376C30.5205 8.376 27.8965 12.152 25.8165 19.704C25.8485 19.672 26.1365 19.384 26.6805 18.84C27.2245 18.264 27.7525 17.752 28.2645 17.304C28.7765 16.856 29.3845 16.344 30.0885 15.768C31.5285 14.552 32.7925 13.944 33.8805 13.944C34.4245 13.944 34.6965 14.296 34.6965 15C34.6965 15.16 34.6805 15.336 34.6485 15.528C34.2965 18.152 33.0165 20.792 30.8085 23.448C28.6325 26.104 26.2805 27.432 23.7525 27.432C23.0805 27.432 22.6965 27.384 22.6005 27.288C19.7525 35.704 15.8485 40.968 10.8885 43.08C9.7685 43.56 8.5685 43.8 7.2885 43.8C6.0085 43.8 4.8085 43.512 3.6885 42.936C1.7365 41.912 0.760496 40.168 0.760496 37.704V36.888C0.760496 36.408 0.952497 36.168 1.3365 36.168C1.4325 36.168 1.4805 36.2 1.4805 36.264ZM32.3445 16.2C32.3445 15.784 32.2005 15.576 31.9125 15.576C31.4325 15.576 30.6165 16.104 29.4645 17.16C28.3445 18.184 27.4645 19.08 26.8245 19.848C24.5845 22.504 23.4645 24.44 23.4645 25.656C23.4645 26.296 23.8645 26.616 24.6645 26.616C25.4645 26.616 26.4245 26.056 27.5445 24.936C28.3765 24.168 29.3845 22.76 30.5685 20.712C31.7525 18.632 32.3445 17.128 32.3445 16.2Z" fill="black" />
</svg>
